<svg height="512" viewBox="0 0 128 128" width="512" xmlns="http://www.w3.org/2000/svg" xmlns:xlink="http://www.w3.org/1999/xlink"><linearGradient id="a" gradientUnits="userSpaceOnUse" x1="109.27" x2="18.73" y1="109.27" y2="18.73"><stop offset="0" stop-color="#3ea2e5"/><stop offset="1" stop-color="#f2da30"/></linearGradient><path d="m91.114 123.443h-54.228a9.639 9.639 0 0 1 -9.629-9.629v-10.563a1.75 1.75 0 0 1 3.5 0v10.563a6.135 6.135 0 0 0 6.129 6.129h54.228a6.135 6.135 0 0 0 6.129-6.129v-84.875a1.75 1.75 0 1 1 3.5 0v84.875a9.639 9.639 0 0 1 -9.629 9.629zm-60.357-41.584v-67.673a6.135 6.135 0 0 1 6.129-6.129h54.228a6.135 6.135 0 0 1 6.129 6.129v7.076a1.75 1.75 0 0 0 3.5 0v-7.076a9.639 9.639 0 0 0 -9.629-9.629h-54.228a9.639 9.639 0 0 0 -9.629 9.629v67.673a1.75 1.75 0 0 0 3.5 0zm0 13.155v-4.5a1.75 1.75 0 0 0 -3.5 0v4.5a1.75 1.75 0 0 0 3.5 0zm59.2-59.853v-18.648a1.749 1.749 0 0 0 -1.75-1.75h-48.407a1.749 1.749 0 0 0 -1.75 1.75v18.648a1.75 1.75 0 0 0 1.75 1.75h48.41a1.75 1.75 0 0 0 1.745-1.75zm-48.41-16.9h44.91v15.15h-44.912zm29.512 36.539v-10.621a1.751 1.751 0 0 0 -1.75-1.75h-10.618a1.751 1.751 0 0 0 -1.75 1.75v10.621a1.751 1.751 0 0 0 1.75 1.75h10.618a1.751 1.751 0 0 0 1.75-1.75zm-10.618-8.871h7.118v7.117h-7.118zm-8.28 8.871v-10.621a1.75 1.75 0 0 0 -1.75-1.75h-10.611a1.75 1.75 0 0 0 -1.75 1.75v10.621a1.75 1.75 0 0 0 1.75 1.75h10.611a1.75 1.75 0 0 0 1.75-1.75zm-10.616-8.871h7.116v7.117h-7.116zm48.41 8.871v-10.621a1.75 1.75 0 0 0 -1.75-1.75h-10.616a1.75 1.75 0 0 0 -1.75 1.75v10.621a1.75 1.75 0 0 0 1.75 1.75h10.616a1.75 1.75 0 0 0 1.75-1.75zm-10.616-8.871h7.116v7.117h-7.116zm-8.28 27.764v-10.616a1.75 1.75 0 0 0 -1.75-1.75h-10.618a1.75 1.75 0 0 0 -1.75 1.75v10.616a1.751 1.751 0 0 0 1.75 1.75h10.618a1.751 1.751 0 0 0 1.75-1.75zm-10.618-8.866h7.118v7.116h-7.118zm-8.28 8.866v-10.616a1.749 1.749 0 0 0 -1.75-1.75h-10.611a1.749 1.749 0 0 0 -1.75 1.75v10.616a1.75 1.75 0 0 0 1.75 1.75h10.611a1.75 1.75 0 0 0 1.75-1.75zm-10.616-8.866h7.116v7.116h-7.116zm48.41 8.866v-10.616a1.749 1.749 0 0 0 -1.75-1.75h-10.616a1.749 1.749 0 0 0 -1.75 1.75v10.616a1.75 1.75 0 0 0 1.75 1.75h10.616a1.75 1.75 0 0 0 1.75-1.75zm-10.616-8.866h7.116v7.116h-7.116zm-8.28 27.763v-10.616a1.75 1.75 0 0 0 -1.75-1.75h-10.618a1.75 1.75 0 0 0 -1.75 1.75v10.616a1.75 1.75 0 0 0 1.75 1.75h10.618a1.75 1.75 0 0 0 1.75-1.75zm-10.618-8.866h7.118v7.116h-7.118zm-8.28 8.866v-10.616a1.749 1.749 0 0 0 -1.75-1.75h-10.611a1.749 1.749 0 0 0 -1.75 1.75v10.616a1.749 1.749 0 0 0 1.75 1.75h10.611a1.749 1.749 0 0 0 1.75-1.75zm-10.616-8.866h7.116v7.116h-7.116zm10.616 27.763v-10.616a1.75 1.75 0 0 0 -1.75-1.75h-10.611a1.75 1.75 0 0 0 -1.75 1.75v10.616a1.749 1.749 0 0 0 1.75 1.75h10.611a1.749 1.749 0 0 0 1.75-1.75zm-10.616-8.866h7.116v7.116h-7.116zm48.41-10.031v-10.616a1.749 1.749 0 0 0 -1.75-1.75h-10.616a1.749 1.749 0 0 0 -1.75 1.75v10.616a1.749 1.749 0 0 0 1.75 1.75h10.616a1.749 1.749 0 0 0 1.75-1.75zm-10.616-8.866h7.116v7.116h-7.116zm10.616 27.763v-10.616a1.75 1.75 0 0 0 -1.75-1.75h-29.514a1.751 1.751 0 0 0 -1.75 1.75v10.616a1.75 1.75 0 0 0 1.75 1.75h29.514a1.749 1.749 0 0 0 1.75-1.75zm-29.514-8.866h26.014v7.116h-26.014z" fill="url(#a)"/></svg>